HIERARCHY
ROOT Pelvis
{
	OFFSET 0.000000 0.000000 0.000000
	CHANNELS 6 Xposition Yposition Zposition Xrotation Yrotation Zrotation
	JOINT LeftUpLeg_virtual
	{
		OFFSET 0.000000 0.000000 0.000000
		CHANNELS 3 Xrotation Yrotation Zrotation
		JOINT LeftUpLeg
		{
			OFFSET 18.735201 -5.666702 -4.541200
			CHANNELS 3 Xrotation Yrotation Zrotation
			JOINT LeftLeg
			{
				OFFSET -0.021200 -31.938179 0.493100
				CHANNELS 3 Xrotation Yrotation Zrotation
				JOINT LeftFoot
				{
					OFFSET 0.021200 -31.938179 -4.336299
					CHANNELS 3 Xrotation Yrotation Zrotation
					JOINT LeftToeBase
					{
						OFFSET 0.943001 -26.722000 15.023500
						CHANNELS 3 Xrotation Yrotation Zrotation
						End Site
						{
							OFFSET 0 0 0
						}
					}
				}
			}
		}
	}
	JOINT RightUpLeg_virtual
	{
		OFFSET 0.000000 0.000000 0.000000
		CHANNELS 3 Xrotation Yrotation Zrotation
		JOINT RightUpLeg
		{
			OFFSET -18.735201 -5.666702 -4.541200
			CHANNELS 3 Xrotation Yrotation Zrotation
			JOINT RightLeg
			{
				OFFSET 0.018946 -31.938133 0.493100
				CHANNELS 3 Xrotation Yrotation Zrotation
				JOINT RightFoot
				{
					OFFSET -0.018946 -31.938126 -4.336299
					CHANNELS 3 Xrotation Yrotation Zrotation
					JOINT RightToeBase
					{
						OFFSET -0.943001 -26.722004 15.023500
						CHANNELS 3 Xrotation Yrotation Zrotation
						End Site
						{
							OFFSET 0 0 0
						}
					}
				}
			}
		}
	}
	JOINT Hips_virtual
	{
		OFFSET 0.000000 0.000000 0.000000
		CHANNELS 3 Xrotation Yrotation Zrotation
		JOINT Hips
		{
			OFFSET -0.000000 -0.000000 -0.000000
			CHANNELS 3 Xrotation Yrotation Zrotation
			JOINT Spine
			{
				OFFSET 0.000000 10.199997 -0.299500
				CHANNELS 3 Xrotation Yrotation Zrotation
				JOINT Spine1
				{
					OFFSET 0.000000 11.900002 -1.516600
					CHANNELS 3 Xrotation Yrotation Zrotation
					JOINT Spine2
					{
						OFFSET 0.000000 13.600006 -2.842500
						CHANNELS 3 Xrotation Yrotation Zrotation
						JOINT Neck_virtual
						{
							OFFSET 0.000000 0.000000 0.000000
							CHANNELS 3 Xrotation Yrotation Zrotation
							JOINT Neck
							{
								OFFSET 0.000000 9.624100 -2.890100
								CHANNELS 3 Xrotation Yrotation Zrotation
								JOINT Head
								{
									OFFSET 0.000000 14.068802 -1.351900
									CHANNELS 3 Xrotation Yrotation Zrotation
									End Site
									{
										OFFSET 0 0 0
									}
								}
							}
						}
						JOINT LeftShoulder_virtual
						{
							OFFSET 0.000000 0.000000 0.000000
							CHANNELS 3 Xrotation Yrotation Zrotation
							JOINT LeftShoulder
							{
								OFFSET 15.263000 10.923401 -0.547700
								CHANNELS 3 Xrotation Yrotation Zrotation
								JOINT LeftArm
								{
									OFFSET 25.438599 -2.830597 -13.032500
									CHANNELS 3 Xrotation Yrotation Zrotation
									JOINT LeftForeArm
									{
										OFFSET 29.960503 0.000000 0.000000
										CHANNELS 3 Xrotation Yrotation Zrotation
										JOINT LeftHand
										{
											OFFSET 27.849251 0.000000 0.000000
											CHANNELS 3 Xrotation Yrotation Zrotation
											End Site
											{
												OFFSET 0 0 0
											}
										}
									}
								}
							}
						}
						JOINT RightShoulder_virtual
						{
							OFFSET 0.000000 0.000000 0.000000
							CHANNELS 3 Xrotation Yrotation Zrotation
							JOINT RightShoulder
							{
								OFFSET -15.263000 10.923401 -0.547700
								CHANNELS 3 Xrotation Yrotation Zrotation
								JOINT RightArm
								{
									OFFSET -25.438599 -2.830597 -13.032500
									CHANNELS 3 Xrotation Yrotation Zrotation
									JOINT RightForeArm
									{
										OFFSET -29.960503 0.000000 0.000000
										CHANNELS 3 Xrotation Yrotation Zrotation
										JOINT RightHand
										{
											OFFSET -27.849251 0.000000 0.000000
											CHANNELS 3 Xrotation Yrotation Zrotation
											End Site
											{
												OFFSET 0 0 0
											}
										}
									}
								}
							}
						}
					}
				}
			}
		}
	}
}
MOTION
Frames: 13
Frame Time: 0.03333333
2.614517 112.505150 2.267392 0.000000 0.000000 0.000000 -32.368376 -2.297284 1.379908 -78.846488 1.257927 19.477458 53.252560 18.690353 -12.869409 -5.511759 22.157052 -9.343217 0.000000 0.000000 0.000000 -35.873018 8.096604 0.051313 -73.822460 4.582930 -14.707472 47.518118 -18.843416 5.577260 -11.088350 -22.175761 5.538536 0.000000 0.000000 0.000000 -22.130313 -6.696832 1.123619 -77.341558 14.667160 19.774733 5.769814 -2.166563 -2.150663 3.391028 -0.979658 -1.452727 0.000000 0.000000 0.000000 4.870825 -1.438749 -1.706057 -0.584072 -0.438051 0.110430 0.000000 0.000000 0.000000 5.468879 -0.196048 -0.850607 2.758683 0.271390 -7.931459 5.977418 -28.598441 -48.559783 18.218073 -70.617237 12.986006 0.000000 0.000000 0.000000 6.354045 -1.046172 1.163412 2.825568 -2.459278 13.586874 -24.266863 43.310008 42.315870 178.959316 68.045473 -179.707031 0.000000 0.000000 0.000000 
2.602989 112.473015 2.174165 0.000000 0.000000 0.000000 -32.253321 -2.319231 1.385297 -78.754929 1.268034 19.503911 52.920026 18.771354 -12.801935 -5.746594 22.196648 -9.243516 0.000000 0.000000 0.000000 -35.898822 8.121538 0.098868 -73.849317 4.573949 -14.680440 47.574412 -18.815967 5.615704 -11.029124 -22.173688 5.608224 0.000000 0.000000 0.000000 -22.200241 -6.718136 1.119936 -77.377574 14.553446 19.832260 5.676876 -2.148254 -2.218792 3.342868 -0.966385 -1.493494 0.000000 0.000000 0.000000 4.777312 -1.446986 -1.715958 -0.624669 -0.439896 0.106666 0.000000 0.000000 0.000000 5.430622 -0.213699 -0.851006 2.734111 0.139689 -7.872211 5.869834 -28.538620 -48.531506 18.161739 -70.577055 12.960499 0.000000 0.000000 0.000000 6.256548 -1.027969 1.084750 2.746246 -2.377348 13.268752 -24.605015 42.981359 42.403833 179.208728 68.214827 179.986604 0.000000 0.000000 0.000000 
2.595219 112.441666 2.117239 0.000000 0.000000 0.000000 -32.191836 -2.386178 1.382580 -78.709188 1.258990 19.522443 52.690139 18.834805 -12.746846 -5.917339 22.224332 -9.155546 0.000000 0.000000 0.000000 -35.938406 8.167775 0.155887 -73.888686 4.569809 -14.647689 47.696420 -18.791165 5.657445 -10.936206 -22.169600 5.672104 0.000000 0.000000 0.000000 -22.260797 -6.740959 1.116847 -77.395175 14.440456 19.872195 5.623053 -2.114124 -2.271794 3.317982 -0.946342 -1.527261 0.000000 0.000000 0.000000 4.743465 -1.449244 -1.722872 -0.637282 -0.437140 0.102247 0.000000 0.000000 0.000000 5.411561 -0.221269 -0.845326 2.717468 0.051697 -7.813237 5.777413 -28.514356 -48.499001 18.169847 -70.582868 12.998789 0.000000 0.000000 0.000000 6.190421 -1.000723 1.022329 2.684426 -2.275989 13.021742 -24.753529 42.668690 42.352753 179.346247 68.471376 179.795058 0.000000 0.000000 0.000000 
2.589639 112.412842 2.094511 0.000000 0.000000 0.000000 -32.177574 -2.491728 1.369628 -78.703027 1.234925 19.530793 52.556656 18.880185 -12.702045 -6.025434 22.239728 -9.078467 0.000000 0.000000 0.000000 -35.987761 8.231719 0.219152 -73.936661 4.570189 -14.611344 47.870344 -18.771474 5.697935 -10.818813 -22.164229 5.723490 0.000000 0.000000 0.000000 -22.311031 -6.767572 1.114208 -77.391733 14.337551 19.895422 5.607512 -2.067678 -2.309185 3.315249 -0.921504 -1.553312 0.000000 0.000000 0.000000 4.768713 -1.447123 -1.727302 -0.622290 -0.430222 0.096415 0.000000 0.000000 0.000000 5.410285 -0.220391 -0.832877 2.707956 0.008038 -7.756306 5.700654 -28.527135 -48.467811 18.238318 -70.635030 13.094700 0.000000 0.000000 0.000000 6.156575 -0.967146 0.976944 2.642246 -2.162100 12.847550 -24.683185 42.387358 42.158195 179.352421 68.809388 179.742999 0.000000 0.000000 0.000000 
2.584662 112.387436 2.102743 0.000000 0.000000 0.000000 -32.204188 -2.626696 1.345244 -78.730477 1.200376 19.527523 52.511468 18.908354 -12.665886 -6.074059 22.243747 -9.011264 0.000000 0.000000 0.000000 -36.042806 8.309378 0.285464 -73.989281 4.574602 -14.573361 48.082131 -18.758111 5.733244 -10.685810 -22.157622 5.757583 0.000000 0.000000 0.000000 -22.350295 -6.800182 1.111874 -77.364064 14.253471 19.903432 5.627697 -2.013230 -2.330963 3.332480 -0.894218 -1.571137 0.000000 0.000000 0.000000 4.849929 -1.442630 -1.729603 -0.581262 -0.419803 0.088567 0.000000 0.000000 0.000000 5.424712 -0.213051 -0.812985 2.704340 0.007986 -7.702462 5.637655 -28.576603 -48.443557 18.361222 -70.732783 13.240871 0.000000 0.000000 0.000000 6.154672 -0.930730 0.949060 2.621056 -2.045408 12.746296 -24.370065 42.147472 41.823116 179.209971 69.217875 179.853634 0.000000 0.000000 0.000000 
2.578831 112.365433 2.137858 0.000000 0.000000 0.000000 -32.265920 -2.780085 1.309130 -78.786505 1.159890 19.511981 52.545246 18.920947 -12.637520 -6.067766 22.238116 -8.953500 0.000000 0.000000 0.000000 -36.099476 8.397531 0.351936 -74.042529 4.582686 -14.535498 48.318824 -18.751258 5.760045 -10.545100 -22.149258 5.771081 0.000000 0.000000 0.000000 -22.378288 -6.840647 1.109701 -77.308924 14.196183 19.898416 5.679587 -1.955630 -2.337404 3.366609 -0.867045 -1.580342 0.000000 0.000000 0.000000 4.981810 -1.438014 -1.729681 -0.516755 -0.406708 0.078440 0.000000 0.000000 0.000000 5.452183 -0.201440 -0.784999 2.705048 0.049641 -7.651928 5.585152 -28.660993 -48.431253 18.531845 -70.874455 13.429748 0.000000 0.000000 0.000000 6.182811 -0.895555 0.939068 2.621057 -1.937989 12.717668 -23.799034 41.951032 41.359712 178.907052 69.681638 -179.854836 0.000000 0.000000 0.000000 
2.570970 112.346046 2.195479 0.000000 0.000000 0.000000 -32.357495 -2.941032 1.261592 -78.866705 1.117603 19.484182 52.648143 18.919580 -12.616883 -6.011886 22.224735 -8.905801 0.000000 0.000000 0.000000 -36.153926 8.494605 0.416165 -74.092629 4.594454 -14.499300 48.569349 -18.750584 5.775513 -10.403370 -22.138262 5.761586 0.000000 0.000000 0.000000 -22.395128 -6.890360 1.107512 -77.223376 14.172567 19.882995 5.758118 -1.899937 -2.328851 3.413987 -0.842575 -1.580566 0.000000 0.000000 0.000000 5.157345 -1.435637 -1.726864 -0.432076 -0.391895 0.066193 0.000000 0.000000 0.000000 5.489614 -0.187797 -0.748305 2.708297 0.130164 -7.604081 5.539618 -28.777486 -48.434582 18.743695 -71.057149 13.654464 0.000000 0.000000 0.000000 6.237369 -0.865976 0.947440 2.641047 -1.853239 12.761655 -22.966859 41.790646 40.790040 178.440058 70.183219 -179.372693 0.000000 0.000000 0.000000 
2.560290 112.327873 2.271546 0.000000 0.000000 0.000000 -32.473793 -3.100888 1.203183 -78.966870 1.076825 19.444570 52.810258 18.905144 -12.604397 -5.911997 22.204925 -8.869938 0.000000 0.000000 0.000000 -36.202755 8.600916 0.476249 -74.136157 4.610392 -14.466170 48.824894 -18.755713 5.777235 -10.266079 -22.123719 5.727009 0.000000 0.000000 0.000000 -22.401340 -6.950295 1.105027 -77.104974 14.187974 19.859760 5.857732 -1.851065 -2.305569 3.470748 -0.823240 -1.571434 0.000000 0.000000 0.000000 5.368314 -1.437863 -1.719977 -0.331037 -0.376419 0.052377 0.000000 0.000000 0.000000 5.533688 -0.174269 -0.702359 2.712235 0.246040 -7.557545 5.498108 -28.922617 -48.455469 18.991237 -71.276972 13.909433 0.000000 0.000000 0.000000 6.313131 -0.846197 0.974712 2.678403 -1.804370 12.878576 -21.884399 41.650248 40.145219 177.815478 70.704342 -178.701286 0.000000 0.000000 0.000000 
2.546457 112.309052 2.362778 0.000000 0.000000 0.000000 -32.609639 -3.254540 1.134488 -79.082758 1.039751 19.393914 53.021864 18.877492 -12.600536 -5.773585 22.179065 -8.848489 0.000000 0.000000 0.000000 -36.243326 8.718160 0.530721 -74.170459 4.631383 -14.437415 49.079140 -18.766686 5.763272 -10.137461 -22.104985 5.665319 0.000000 0.000000 0.000000 -22.397949 -7.021151 1.101807 -76.952285 14.245649 19.830869 5.972954 -1.813427 -2.267725 3.533190 -0.811134 -1.552577 0.000000 0.000000 0.000000 5.605825 -1.446953 -1.707549 -0.217701 -0.361393 0.037820 0.000000 0.000000 0.000000 5.581102 -0.162802 -0.646752 2.715109 0.393317 -7.510440 5.458781 -29.092638 -48.494049 19.270183 -71.529211 14.190542 0.000000 0.000000 0.000000 6.403728 -0.839811 1.021315 2.729351 -1.802685 13.068458 -20.577280 41.507992 39.463105 177.050169 71.227815 -177.854083 0.000000 0.000000 0.000000 
2.529573 112.287659 2.466811 0.000000 0.000000 0.000000 -32.759810 -3.400656 1.056203 -79.209950 1.007358 19.333310 53.273717 18.835630 -12.605499 -5.601914 22.146612 -8.844206 0.000000 0.000000 0.000000 -36.274124 8.848295 0.578500 -74.194023 4.658382 -14.414196 49.328548 -18.784084 5.732436 -10.020419 -22.081991 5.574772 0.000000 0.000000 0.000000 -22.386580 -7.103462 1.097227 -76.765732 14.346199 19.797933 6.098903 -1.790628 -2.215457 3.598098 -0.807871 -1.523686 0.000000 0.000000 0.000000 5.860952 -1.464923 -1.688135 -0.096093 -0.347917 0.023451 0.000000 0.000000 0.000000 5.628796 -0.155062 -0.581310 2.715425 0.567788 -7.460786 5.421108 -29.283828 -48.549138 19.577713 -71.808559 14.495097 0.000000 0.000000 0.000000 6.502375 -0.849401 1.087293 2.789551 -1.855988 13.330024 -19.084633 41.340082 38.784949 176.170140 71.738344 -176.856014 0.000000 0.000000 0.000000 
2.510108 112.262230 2.581952 0.000000 0.000000 0.000000 -32.919323 -3.540946 0.969509 -79.344163 0.979369 19.264410 53.557286 18.778232 -12.618977 -5.401948 22.106428 -8.859290 0.000000 0.000000 0.000000 -36.295017 8.991970 0.618937 -74.206795 4.691911 -14.397349 49.572478 -18.808917 5.684723 -9.916285 -22.055256 5.454615 0.000000 0.000000 0.000000 -22.369503 -7.197637 1.090520 -76.548669 14.487311 19.762322 6.231636 -1.785229 -2.148997 3.662945 -0.814482 -1.484602 0.000000 0.000000 0.000000 6.125416 -1.493369 -1.660622 0.030109 -0.336973 0.010132 0.000000 0.000000 0.000000 5.674190 -0.152403 -0.506205 2.712091 0.765101 -7.407069 5.385897 -29.492695 -48.619076 19.912278 -72.109572 14.821439 0.000000 0.000000 0.000000 6.602742 -0.876277 1.172034 2.854851 -1.967509 13.659650 -17.455604 41.125064 38.151251 175.208081 72.223445 -175.741123 0.000000 0.000000 0.000000 
2.488788 112.232414 2.706661 0.000000 0.000000 0.000000 -33.083678 -3.678812 0.876596 -79.481463 0.954385 19.189690 53.865197 18.704348 -12.640155 -5.178248 22.057357 -8.894751 0.000000 0.000000 0.000000 -36.307435 9.147164 0.651933 -74.210463 4.731550 -14.387143 49.812969 -18.842209 5.621702 -9.824723 -22.025856 5.306016 0.000000 0.000000 0.000000 -22.349610 -7.303903 1.080877 -76.308000 14.663651 19.725501 6.368264 -1.798614 -2.068798 3.725960 -0.831368 -1.435389 0.000000 0.000000 0.000000 6.392192 -1.533279 -1.624470 0.157832 -0.329295 -0.001489 0.000000 0.000000 0.000000 5.715318 -0.155866 -0.422069 2.704514 0.980807 -7.348781 5.355076 -29.716118 -48.702654 20.273214 -72.427025 15.168286 0.000000 0.000000 0.000000 6.699767 -0.920416 1.274095 2.922009 -2.135557 14.050760 -15.744261 40.846932 37.597633 174.199849 72.673841 -174.548995 0.000000 0.000000 0.000000 
2.466512 112.199547 2.838935 0.000000 0.000000 0.000000 -33.248972 -3.817798 0.781091 -79.618504 0.930104 19.112638 54.191353 18.614007 -12.667790 -4.934915 21.998808 -8.950062 0.000000 0.000000 0.000000 -36.314152 9.308316 0.678006 -74.208189 4.775581 -14.383069 50.053771 -18.884442 5.546637 -9.743958 -21.995222 5.132795 0.000000 0.000000 0.000000 -22.330282 -7.422242 1.067546 -76.054129 14.866998 19.689185 6.506812 -1.830988 -1.975621 3.786031 -0.858322 -1.376380 0.000000 0.000000 0.000000 6.655784 -1.584898 -1.579795 0.284715 -0.325275 -0.011035 0.000000 0.000000 0.000000 5.750885 -0.166211 -0.330053 2.692614 1.210348 -7.286832 5.331382 -29.951223 -48.799936 20.660036 -72.755797 15.533916 0.000000 0.000000 0.000000 6.790161 -0.980580 1.391199 2.989158 -2.353893 14.493830 -14.003860 40.496735 37.151147 173.180853 73.083782 -173.320435 0.000000 0.000000 0.000000 
